<?xml version="1.0" standalone="no"?><!DOCTYPE svg PUBLIC "-//W3C//DTD SVG 1.1//EN" "http://www.w3.org/Graphics/SVG/1.1/DTD/svg11.dtd"><svg t="1524380733417" class="icon" style="" viewBox="0 0 1170 1024" version="1.1" xmlns="http://www.w3.org/2000/svg" p-id="1825" xmlns:xlink="http://www.w3.org/1999/xlink" width="292.5" height="256"><defs><style type="text/css"></style></defs><path d="M146.285714 585.142857h987.428572c20.004571 0 36.571429 16.566857 36.571428 36.571429v256h-146.285714v-146.285715H146.285714v146.285715H0V182.857143c0-20.004571 16.566857-36.571429 36.571429-36.571429h73.142857c20.004571 0 36.571429 16.566857 36.571428 36.571429v402.285714z m329.142857-182.857143c0-80.566857-65.718857-146.285714-146.285714-146.285714s-146.285714 65.718857-146.285714 146.285714 65.718857 146.285714 146.285714 146.285715 146.285714-65.718857 146.285714-146.285715z m694.857143 146.285715v-36.571429c0-121.161143-98.304-219.428571-219.428571-219.428571H548.571429c-20.004571 0-36.571429 16.566857-36.571429 36.571428v219.428572h658.285714z" fill="#ffffff" p-id="1826"></path></svg>