<?xml version="1.0" standalone="no"?><!DOCTYPE svg PUBLIC "-//W3C//DTD SVG 1.1//EN" "http://www.w3.org/Graphics/SVG/1.1/DTD/svg11.dtd"><svg t="1524380800021" class="icon" style="" viewBox="0 0 1024 1024" version="1.1" xmlns="http://www.w3.org/2000/svg" p-id="2487" xmlns:xlink="http://www.w3.org/1999/xlink" width="256" height="256"><defs><style type="text/css"></style></defs><path d="M851.2 633.6V544H172.8v89.6h-32a32 32 0 0 1-32-32V275.2a32 32 0 0 1 32-32h742.4a32 32 0 0 1 32 32v326.4a32 32 0 0 1-32 32h-32zM172.8 307.2v172.8h678.4V307.2H172.8z m67.2 281.6h544a22.4 22.4 0 1 1 0 44.8h-544a22.4 22.4 0 0 1 0-44.8z m0 89.6a22.4 22.4 0 0 1 22.4 22.4v57.6a22.4 22.4 0 0 1-44.8 0v-57.6a22.4 22.4 0 0 1 22.4-22.4z m409.6 0a22.4 22.4 0 0 1 22.4 22.4v57.6a22.4 22.4 0 0 1-44.8 0v-57.6a22.4 22.4 0 0 1 22.4-22.4z m-140.8 0a22.4 22.4 0 0 1 22.4 22.4v57.6a22.4 22.4 0 0 1-44.8 0v-57.6a22.4 22.4 0 0 1 22.4-22.4z m-134.4 0a22.4 22.4 0 0 1 22.4 22.4v57.6a22.4 22.4 0 0 1-44.8 0v-57.6a22.4 22.4 0 0 1 22.4-22.4z m409.6 0a22.4 22.4 0 0 1 22.4 22.4v57.6a22.4 22.4 0 1 1-44.8 0v-57.6a22.4 22.4 0 0 1 22.4-22.4z" fill="#ffffff" p-id="2488"></path></svg>