<?xml version="1.0" standalone="no"?><!DOCTYPE svg PUBLIC "-//W3C//DTD SVG 1.1//EN" "http://www.w3.org/Graphics/SVG/1.1/DTD/svg11.dtd"><svg t="1524380433898" class="icon" style="" viewBox="0 0 1024 1024" version="1.1" xmlns="http://www.w3.org/2000/svg" p-id="1257" xmlns:xlink="http://www.w3.org/1999/xlink" width="256" height="256"><defs><style type="text/css"></style></defs><path d="M861.3 496.6l-2.9-13c-2.3-10.9-11.9-18.7-23.1-18.7H792L812.9 122c2.5-16.5-1.4-32.4-10.8-43.5-7.9-9.3-18.8-14.6-30.8-14.6H252.8c-12 0-23 5.2-30.8 14.6-9.3 11.1-13.2 26.9-10.8 43.4l20.7 343h-43.2c-11.2 0-20.8 7.8-23.1 18.7l-2.9 13c-4 17.7-8 35.9-8 55.7 0 124.6 72.2 217 216.2 274.7v109.1c0 13 10.1 23.8 23.2 23.8h235.7c13 0 23.2-10.8 23.2-23.8v-109C797 769.4 869.2 677 869.2 552.4c0-19.8-3.9-38.1-7.9-55.8zM766.4 112c0.1 1 0 1.7-0.2 3.4L765 134H259.1l-0.9-16.3-0.3-2.1c-0.3-1.7-0.3-2.6-0.2-3.6h508.7z m-504.6 70h500.6L745 465H279.1l-17.3-283z m-54.2 330h608.8c3.2 14 5.9 27.3 5.9 40.3 0 2.3-0.2 4.7-0.3 6.7H202c-0.1-2-0.3-4.4-0.3-6.7 0-13 2.7-26.3 5.9-40.3zM622 789.3c-9.2 3.4-15 11.9-15 21.7v101H417V811c0-9.8-5.7-18.3-15-21.7C290.5 747.7 226.8 687 207.8 607h608.4c-19 80-82.7 140.7-194.2 182.3z" fill="#ffffff" p-id="1258"></path></svg>