<?xml version="1.0" standalone="no"?><!DOCTYPE svg PUBLIC "-//W3C//DTD SVG 1.1//EN" "http://www.w3.org/Graphics/SVG/1.1/DTD/svg11.dtd"><svg t="1524381288410" class="icon" style="" viewBox="0 0 1024 1024" version="1.1" xmlns="http://www.w3.org/2000/svg" p-id="6310" xmlns:xlink="http://www.w3.org/1999/xlink" width="256" height="256"><defs><style type="text/css"></style></defs><path d="M918 438V227.9c0-23.4-27.3-40.9-49.7-40.9h-731c-22.4 0-31.3 17.5-31.3 40.9V438c-20 11.5-41 35.7-41 63.9V776c0 11.2 4.8 20.9 16 20.9h64v19.7c0 11.2 9.8 20.3 21 20.3s21-9.1 21-20.3V797h650v19.7c0 11.2 9.8 20.3 21 20.3s21-9.1 21-20.3V797h54.8c11.2 0 25.2-9.7 25.2-20.9V502c0-28.3-21-52.5-41-64z m-45.1-212.1c0.1 0.1 6.1 0.8 6.1 2V432c-42 5-63 34.3-63 70v31H208v-31c0-35.7-21-65.1-63-70V227.9c0-1.1-0.7-1.8-1-1.8l728.9-0.2zM208 573h282v61H208v-61z m322 0h286v61H530v-61z m388 182H106V502c0-16.8 13.7-30.5 30.5-30.5S167 485.2 167 502v152.3c0 11.2 4.3 20.7 15.5 20.7h649.7c11.2 0 24.7-9.5 24.7-20.7V502c0-16.8 13.7-30.5 30.5-30.5S918 485.2 918 502v253z" fill="#ffffff" p-id="6311"></path></svg>