<?xml version="1.0" standalone="no"?><!DOCTYPE svg PUBLIC "-//W3C//DTD SVG 1.1//EN" "http://www.w3.org/Graphics/SVG/1.1/DTD/svg11.dtd"><svg t="1524379160071" class="icon" style="" viewBox="0 0 1024 1024" version="1.1" xmlns="http://www.w3.org/2000/svg" p-id="3118" xmlns:xlink="http://www.w3.org/1999/xlink" width="256" height="256"><defs><style type="text/css"></style></defs><path d="M735 195v-33.807C735 107.05 690.769 63 636.626 63H163.193C109.05 63 65 107.05 65 161.193V963h70V161.193c0-15.47 12.724-28.193 28.193-28.193h473.432c15.47 0 28.374 12.724 28.374 28.193V195H451v106h508V195H735z" fill="#ffffff" p-id="3119"></path><path d="M500 349h21v109h-21zM500 520h21v118h-21zM500 700h21v128h-21zM628 349h21v109h-21zM628 520h21v118h-21zM628 700h21v128h-21zM757 349h21v109h-21zM757 520h21v118h-21zM757 700h21v128h-21zM885 349h21v109h-21zM885 520h21v118h-21zM885 700h21v128h-21z" fill="#ffffff" p-id="3120"></path></svg>