<?xml version="1.0" standalone="no"?><!DOCTYPE svg PUBLIC "-//W3C//DTD SVG 1.1//EN" "http://www.w3.org/Graphics/SVG/1.1/DTD/svg11.dtd"><svg t="1524381236577" class="icon" style="" viewBox="0 0 1024 1024" version="1.1" xmlns="http://www.w3.org/2000/svg" p-id="5656" xmlns:xlink="http://www.w3.org/1999/xlink" width="256" height="256"><defs><style type="text/css"></style></defs><path d="M725.333333 128H298.666667c-59.733333 0-106.666667 46.933333-106.666667 106.666667v512c0 51.2 36.266667 93.866667 85.333333 104.533333V896c0 12.8 8.533333 21.333333 21.333334 21.333333s21.333333-8.533333 21.333333-21.333333v-42.666667h384v42.666667c0 12.8 8.533333 21.333333 21.333333 21.333333s21.333333-8.533333 21.333334-21.333333v-42.666667-2.133333c49.066667-10.666667 85.333333-53.333333 85.333333-104.533333V234.666667c0-59.733333-46.933333-106.666667-106.666667-106.666667zM298.666667 810.666667c-36.266667 0-64-27.733333-64-64V234.666667c0-36.266667 27.733333-64 64-64h192v640h-192z m490.666666-64c0 36.266667-27.733333 64-64 64h-192V170.666667h192c36.266667 0 64 27.733333 64 64v512z" fill="#ffffff" p-id="5657"></path><path d="M426.666667 448c-12.8 0-21.333333 8.533333-21.333334 21.333333v42.666667c0 12.8 8.533333 21.333333 21.333334 21.333333s21.333333-8.533333 21.333333-21.333333v-42.666667c0-12.8-8.533333-21.333333-21.333333-21.333333zM597.333333 448c-12.8 0-21.333333 8.533333-21.333333 21.333333v42.666667c0 12.8 8.533333 21.333333 21.333333 21.333333s21.333333-8.533333 21.333334-21.333333v-42.666667c0-12.8-8.533333-21.333333-21.333334-21.333333z" fill="#ffffff" p-id="5658"></path></svg>